<svg width="16" height="24" viewBox="0 0 16 24" fill="none" xmlns="http://www.w3.org/2000/svg">
<g filter="url(#filter0_d_438_91)">
<path d="M5.20286 14.8762L5.20289 14.8762C5.38024 15.0487 5.60745 15.1472 5.84632 15.1482C6.00583 15.1585 6.16435 15.1248 6.30882 15.0513C6.45467 14.977 6.58112 14.8647 6.67935 14.7256C6.67938 14.7256 6.67941 14.7256 6.67943 14.7255L10.929 8.7391L10.9295 8.7383C11.0733 8.53299 11.15 8.2786 11.15 8.01867C11.15 7.759 11.0734 7.50486 10.9299 7.29965C10.9298 7.29945 10.9297 7.29924 10.9295 7.29904L6.8264 1.31541C6.74574 1.19001 6.64284 1.08361 6.523 1.00411C6.40239 0.924097 6.26749 0.873279 6.12675 0.856304C5.98594 0.839321 5.84397 0.856788 5.71023 0.907014C5.57765 0.956802 5.457 1.0373 5.35508 1.1419C5.25423 1.23763 5.17161 1.35441 5.11088 1.4849C5.04965 1.61647 5.01156 1.76006 4.9982 1.90747C4.98484 2.0549 4.9964 2.20409 5.0324 2.34672C5.06836 2.48922 5.12823 2.62317 5.20942 2.74062C5.20949 2.74071 5.20955 2.74081 5.20962 2.7409L8.82179 8.01204L5.07479 13.2748L5.07467 13.275C4.9922 13.3912 4.93087 13.5241 4.89331 13.666C4.85575 13.8078 4.84248 13.9566 4.85405 14.1039C4.86562 14.2513 4.90188 14.3952 4.96129 14.5274C5.02071 14.6597 5.10246 14.7785 5.20286 14.8762Z" fill="#2B2C34" stroke="#2B2C34" stroke-width="0.3"/>
</g>
<defs>
<filter id="filter0_d_438_91" x="0.700012" y="0.699951" width="14.6" height="22.6001" filterUnits="userSpaceOnUse" color-interpolation-filters="sRGB">
<feFlood flood-opacity="0" result="BackgroundImageFix"/>
<feColorMatrix in="SourceAlpha" type="matrix" values="0 0 0 0 0 0 0 0 0 0 0 0 0 0 0 0 0 0 127 0" result="hardAlpha"/>
<feOffset dy="4"/>
<feGaussianBlur stdDeviation="2"/>
<feComposite in2="hardAlpha" operator="out"/>
<feColorMatrix type="matrix" values="0 0 0 0 0 0 0 0 0 0 0 0 0 0 0 0 0 0 0.25 0"/>
<feBlend mode="normal" in2="BackgroundImageFix" result="effect1_dropShadow_438_91"/>
<feBlend mode="normal" in="SourceGraphic" in2="effect1_dropShadow_438_91" result="shape"/>
</filter>
</defs>
</svg>
