<svg width="1448" height="908" viewBox="0 0 1448 908" fill="none" xmlns="http://www.w3.org/2000/svg">
<g filter="url(#filter0_d_184_180)">
<rect x="4" width="1440" height="900" fill="#EFF0F3"/>
<g clip-path="url(#clip0_184_180)">
<circle cx="54.5" cy="47.5" r="1.5" fill="#D2D6DB"/>
<circle cx="107.5" cy="47.5" r="1.5" fill="#D2D6DB"/>
<circle cx="160.5" cy="47.5" r="1.5" fill="#D2D6DB"/>
<circle cx="213.5" cy="47.5" r="1.5" fill="#D2D6DB"/>
<circle cx="266.5" cy="47.5" r="1.5" fill="#D2D6DB"/>
<circle cx="319.5" cy="47.5" r="1.5" fill="#D2D6DB"/>
<circle cx="372.5" cy="47.5" r="1.5" fill="#D2D6DB"/>
<circle cx="425.5" cy="47.5" r="1.5" fill="#D2D6DB"/>
<circle cx="478.5" cy="47.5" r="1.5" fill="#D2D6DB"/>
<circle cx="531.5" cy="47.5" r="1.5" fill="#D2D6DB"/>
<circle cx="584.5" cy="47.5" r="1.5" fill="#D2D6DB"/>
<circle cx="637.5" cy="47.5" r="1.5" fill="#D2D6DB"/>
<circle cx="690.5" cy="47.5" r="1.5" fill="#D2D6DB"/>
<circle cx="743.5" cy="47.5" r="1.5" fill="#D2D6DB"/>
<circle cx="796.5" cy="47.5" r="1.5" fill="#D2D6DB"/>
<circle cx="849.5" cy="47.5" r="1.5" fill="#D2D6DB"/>
<circle cx="902.5" cy="47.5" r="1.5" fill="#D2D6DB"/>
<circle cx="955.5" cy="47.5" r="1.5" fill="#D2D6DB"/>
<circle cx="1008.5" cy="47.5" r="1.5" fill="#D2D6DB"/>
<circle cx="1061.5" cy="47.5" r="1.5" fill="#D2D6DB"/>
<circle cx="1114.5" cy="47.5" r="1.5" fill="#D2D6DB"/>
<circle cx="1167.5" cy="47.5" r="1.5" fill="#D2D6DB"/>
<circle cx="1220.5" cy="47.5" r="1.5" fill="#D2D6DB"/>
<circle cx="1273.5" cy="47.5" r="1.5" fill="#D2D6DB"/>
<circle cx="1326.5" cy="47.5" r="1.5" fill="#D2D6DB"/>
<circle cx="1379.5" cy="47.5" r="1.5" fill="#D2D6DB"/>
<circle cx="54.5" cy="100.5" r="1.5" fill="#D2D6DB"/>
<circle cx="107.5" cy="100.5" r="1.5" fill="#D2D6DB"/>
<circle cx="160.5" cy="100.5" r="1.5" fill="#D2D6DB"/>
<circle cx="213.5" cy="100.5" r="1.5" fill="#D2D6DB"/>
<circle cx="266.5" cy="100.5" r="1.5" fill="#D2D6DB"/>
<circle cx="319.5" cy="100.5" r="1.5" fill="#D2D6DB"/>
<circle cx="372.5" cy="100.5" r="1.5" fill="#D2D6DB"/>
<circle cx="425.5" cy="100.5" r="1.5" fill="#D2D6DB"/>
<circle cx="478.5" cy="100.5" r="1.5" fill="#D2D6DB"/>
<circle cx="531.5" cy="100.5" r="1.5" fill="#D2D6DB"/>
<circle cx="584.5" cy="100.5" r="1.5" fill="#D2D6DB"/>
<circle cx="637.5" cy="100.5" r="1.5" fill="#D2D6DB"/>
<circle cx="690.5" cy="100.5" r="1.5" fill="#D2D6DB"/>
<circle cx="743.5" cy="100.5" r="1.5" fill="#D2D6DB"/>
<circle cx="796.5" cy="100.5" r="1.5" fill="#D2D6DB"/>
<circle cx="849.5" cy="100.5" r="1.5" fill="#D2D6DB"/>
<circle cx="902.5" cy="100.5" r="1.5" fill="#D2D6DB"/>
<circle cx="955.5" cy="100.5" r="1.5" fill="#D2D6DB"/>
<circle cx="1008.5" cy="100.5" r="1.5" fill="#D2D6DB"/>
<circle cx="1061.5" cy="100.5" r="1.5" fill="#D2D6DB"/>
<circle cx="1114.5" cy="100.5" r="1.5" fill="#D2D6DB"/>
<circle cx="1167.5" cy="100.5" r="1.5" fill="#D2D6DB"/>
<circle cx="1220.5" cy="100.5" r="1.5" fill="#D2D6DB"/>
<circle cx="1273.5" cy="100.5" r="1.5" fill="#D2D6DB"/>
<circle cx="1326.5" cy="100.5" r="1.5" fill="#D2D6DB"/>
<circle cx="1379.5" cy="100.5" r="1.5" fill="#D2D6DB"/>
<circle cx="54.5" cy="153.5" r="1.5" fill="#D2D6DB"/>
<circle cx="107.5" cy="153.5" r="1.5" fill="#D2D6DB"/>
<circle cx="160.5" cy="153.5" r="1.5" fill="#D2D6DB"/>
<circle cx="213.5" cy="153.5" r="1.5" fill="#D2D6DB"/>
<circle cx="266.5" cy="153.5" r="1.5" fill="#D2D6DB"/>
<circle cx="319.5" cy="153.5" r="1.5" fill="#D2D6DB"/>
<circle cx="372.5" cy="153.5" r="1.5" fill="#D2D6DB"/>
<circle cx="425.5" cy="153.5" r="1.5" fill="#D2D6DB"/>
<circle cx="478.5" cy="153.5" r="1.5" fill="#D2D6DB"/>
<circle cx="531.5" cy="153.5" r="1.5" fill="#D2D6DB"/>
<circle cx="584.5" cy="153.5" r="1.5" fill="#D2D6DB"/>
<circle cx="637.5" cy="153.5" r="1.5" fill="#D2D6DB"/>
<circle cx="690.5" cy="153.5" r="1.5" fill="#D2D6DB"/>
<circle cx="743.5" cy="153.5" r="1.5" fill="#D2D6DB"/>
<circle cx="796.5" cy="153.5" r="1.5" fill="#D2D6DB"/>
<circle cx="849.5" cy="153.5" r="1.5" fill="#D2D6DB"/>
<circle cx="902.5" cy="153.5" r="1.5" fill="#D2D6DB"/>
<circle cx="955.5" cy="153.5" r="1.5" fill="#D2D6DB"/>
<circle cx="1008.5" cy="153.5" r="1.5" fill="#D2D6DB"/>
<circle cx="1061.5" cy="153.5" r="1.5" fill="#D2D6DB"/>
<circle cx="1114.5" cy="153.5" r="1.5" fill="#D2D6DB"/>
<circle cx="1167.5" cy="153.5" r="1.5" fill="#D2D6DB"/>
<circle cx="1220.5" cy="153.5" r="1.5" fill="#D2D6DB"/>
<circle cx="1273.5" cy="153.5" r="1.5" fill="#D2D6DB"/>
<circle cx="1326.5" cy="153.5" r="1.5" fill="#D2D6DB"/>
<circle cx="1379.5" cy="153.5" r="1.5" fill="#D2D6DB"/>
<circle cx="54.5" cy="206.5" r="1.5" fill="#D2D6DB"/>
<circle cx="107.5" cy="206.5" r="1.5" fill="#D2D6DB"/>
<circle cx="160.5" cy="206.5" r="1.5" fill="#D2D6DB"/>
<circle cx="213.5" cy="206.5" r="1.5" fill="#D2D6DB"/>
<circle cx="266.5" cy="206.5" r="1.5" fill="#D2D6DB"/>
<circle cx="319.5" cy="206.5" r="1.5" fill="#D2D6DB"/>
<circle cx="372.5" cy="206.5" r="1.5" fill="#D2D6DB"/>
<circle cx="425.5" cy="206.5" r="1.5" fill="#D2D6DB"/>
<circle cx="478.5" cy="206.5" r="1.5" fill="#D2D6DB"/>
<circle cx="531.5" cy="206.5" r="1.5" fill="#D2D6DB"/>
<circle cx="584.5" cy="206.5" r="1.5" fill="#D2D6DB"/>
<circle cx="637.5" cy="206.5" r="1.5" fill="#D2D6DB"/>
<circle cx="690.5" cy="206.5" r="1.5" fill="#D2D6DB"/>
<circle cx="743.5" cy="206.5" r="1.5" fill="#D2D6DB"/>
<circle cx="796.5" cy="206.5" r="1.5" fill="#D2D6DB"/>
<circle cx="849.5" cy="206.5" r="1.5" fill="#D2D6DB"/>
<circle cx="902.5" cy="206.5" r="1.5" fill="#D2D6DB"/>
<circle cx="955.5" cy="206.5" r="1.5" fill="#D2D6DB"/>
<circle cx="1008.5" cy="206.5" r="1.5" fill="#D2D6DB"/>
<circle cx="1061.5" cy="206.5" r="1.5" fill="#D2D6DB"/>
<circle cx="1114.5" cy="206.5" r="1.5" fill="#D2D6DB"/>
<circle cx="1167.5" cy="206.5" r="1.5" fill="#D2D6DB"/>
<circle cx="1220.5" cy="206.5" r="1.5" fill="#D2D6DB"/>
<circle cx="1273.5" cy="206.5" r="1.5" fill="#D2D6DB"/>
<circle cx="1326.5" cy="206.5" r="1.5" fill="#D2D6DB"/>
<circle cx="1379.5" cy="206.5" r="1.5" fill="#D2D6DB"/>
<circle cx="54.5" cy="259.5" r="1.5" fill="#D2D6DB"/>
<circle cx="107.5" cy="259.5" r="1.5" fill="#D2D6DB"/>
<circle cx="160.5" cy="259.5" r="1.5" fill="#D2D6DB"/>
<circle cx="213.5" cy="259.5" r="1.5" fill="#D2D6DB"/>
<circle cx="266.5" cy="259.5" r="1.5" fill="#D2D6DB"/>
<circle cx="319.5" cy="259.5" r="1.5" fill="#D2D6DB"/>
<circle cx="372.5" cy="259.5" r="1.5" fill="#D2D6DB"/>
<circle cx="425.5" cy="259.5" r="1.5" fill="#D2D6DB"/>
<circle cx="478.5" cy="259.5" r="1.5" fill="#D2D6DB"/>
<circle cx="531.5" cy="259.5" r="1.5" fill="#D2D6DB"/>
<circle cx="584.5" cy="259.5" r="1.5" fill="#D2D6DB"/>
<circle cx="637.5" cy="259.5" r="1.5" fill="#D2D6DB"/>
<circle cx="690.5" cy="259.5" r="1.5" fill="#D2D6DB"/>
<circle cx="743.5" cy="259.5" r="1.5" fill="#D2D6DB"/>
<circle cx="796.5" cy="259.5" r="1.5" fill="#D2D6DB"/>
<circle cx="849.5" cy="259.5" r="1.5" fill="#D2D6DB"/>
<circle cx="902.5" cy="259.5" r="1.5" fill="#D2D6DB"/>
<circle cx="955.5" cy="259.5" r="1.5" fill="#D2D6DB"/>
<circle cx="1008.5" cy="259.5" r="1.5" fill="#D2D6DB"/>
<circle cx="1061.5" cy="259.5" r="1.5" fill="#D2D6DB"/>
<circle cx="1114.5" cy="259.5" r="1.5" fill="#D2D6DB"/>
<circle cx="1167.5" cy="259.5" r="1.5" fill="#D2D6DB"/>
<circle cx="1220.5" cy="259.5" r="1.5" fill="#D2D6DB"/>
<circle cx="1273.5" cy="259.5" r="1.5" fill="#D2D6DB"/>
<circle cx="1326.5" cy="259.5" r="1.5" fill="#D2D6DB"/>
<circle cx="1379.5" cy="259.5" r="1.5" fill="#D2D6DB"/>
<circle cx="54.5" cy="312.5" r="1.5" fill="#D2D6DB"/>
<circle cx="107.5" cy="312.5" r="1.5" fill="#D2D6DB"/>
<circle cx="160.5" cy="312.5" r="1.5" fill="#D2D6DB"/>
<circle cx="213.5" cy="312.5" r="1.5" fill="#D2D6DB"/>
<circle cx="266.5" cy="312.5" r="1.5" fill="#D2D6DB"/>
<circle cx="319.5" cy="312.5" r="1.5" fill="#D2D6DB"/>
<circle cx="372.5" cy="312.5" r="1.5" fill="#D2D6DB"/>
<circle cx="425.5" cy="312.5" r="1.5" fill="#D2D6DB"/>
<circle cx="478.5" cy="312.5" r="1.5" fill="#D2D6DB"/>
<circle cx="531.5" cy="312.5" r="1.5" fill="#D2D6DB"/>
<circle cx="584.5" cy="312.5" r="1.5" fill="#D2D6DB"/>
<circle cx="637.5" cy="312.5" r="1.5" fill="#D2D6DB"/>
<circle cx="690.5" cy="312.5" r="1.5" fill="#D2D6DB"/>
<circle cx="743.5" cy="312.5" r="1.5" fill="#D2D6DB"/>
<circle cx="796.5" cy="312.5" r="1.5" fill="#D2D6DB"/>
<circle cx="849.5" cy="312.5" r="1.5" fill="#D2D6DB"/>
<circle cx="902.5" cy="312.5" r="1.5" fill="#D2D6DB"/>
<circle cx="955.5" cy="312.5" r="1.5" fill="#D2D6DB"/>
<circle cx="1008.5" cy="312.5" r="1.5" fill="#D2D6DB"/>
<circle cx="1061.5" cy="312.5" r="1.5" fill="#D2D6DB"/>
<circle cx="1114.5" cy="312.5" r="1.5" fill="#D2D6DB"/>
<circle cx="1167.5" cy="312.5" r="1.5" fill="#D2D6DB"/>
<circle cx="1220.5" cy="312.5" r="1.5" fill="#D2D6DB"/>
<circle cx="1273.5" cy="312.5" r="1.5" fill="#D2D6DB"/>
<circle cx="1326.5" cy="312.5" r="1.5" fill="#D2D6DB"/>
<circle cx="1379.5" cy="312.5" r="1.5" fill="#D2D6DB"/>
<circle cx="54.5" cy="365.5" r="1.5" fill="#D2D6DB"/>
<circle cx="107.5" cy="365.5" r="1.5" fill="#D2D6DB"/>
<circle cx="160.5" cy="365.5" r="1.5" fill="#D2D6DB"/>
<circle cx="213.5" cy="365.5" r="1.5" fill="#D2D6DB"/>
<circle cx="266.5" cy="365.5" r="1.5" fill="#D2D6DB"/>
<circle cx="319.5" cy="365.5" r="1.5" fill="#D2D6DB"/>
<circle cx="372.5" cy="365.5" r="1.5" fill="#D2D6DB"/>
<circle cx="425.5" cy="365.5" r="1.5" fill="#D2D6DB"/>
<circle cx="478.5" cy="365.5" r="1.5" fill="#D2D6DB"/>
<circle cx="531.5" cy="365.5" r="1.5" fill="#D2D6DB"/>
<circle cx="584.5" cy="365.5" r="1.5" fill="#D2D6DB"/>
<circle cx="637.5" cy="365.5" r="1.5" fill="#D2D6DB"/>
<circle cx="690.5" cy="365.5" r="1.5" fill="#D2D6DB"/>
<circle cx="743.5" cy="365.5" r="1.5" fill="#D2D6DB"/>
<circle cx="796.5" cy="365.5" r="1.5" fill="#D2D6DB"/>
<circle cx="849.5" cy="365.5" r="1.5" fill="#D2D6DB"/>
<circle cx="902.5" cy="365.5" r="1.5" fill="#D2D6DB"/>
<circle cx="955.5" cy="365.5" r="1.5" fill="#D2D6DB"/>
<circle cx="1008.5" cy="365.5" r="1.5" fill="#D2D6DB"/>
<circle cx="1061.5" cy="365.5" r="1.5" fill="#D2D6DB"/>
<circle cx="1114.5" cy="365.5" r="1.5" fill="#D2D6DB"/>
<circle cx="1167.5" cy="365.5" r="1.5" fill="#D2D6DB"/>
<circle cx="1220.5" cy="365.5" r="1.5" fill="#D2D6DB"/>
<circle cx="1273.5" cy="365.5" r="1.5" fill="#D2D6DB"/>
<circle cx="1326.5" cy="365.5" r="1.5" fill="#D2D6DB"/>
<circle cx="1379.5" cy="365.5" r="1.5" fill="#D2D6DB"/>
<circle cx="54.5" cy="418.5" r="1.5" fill="#D2D6DB"/>
<circle cx="107.5" cy="418.5" r="1.5" fill="#D2D6DB"/>
<circle cx="160.5" cy="418.5" r="1.5" fill="#D2D6DB"/>
<circle cx="213.5" cy="418.5" r="1.5" fill="#D2D6DB"/>
<circle cx="266.5" cy="418.5" r="1.5" fill="#D2D6DB"/>
<circle cx="319.5" cy="418.5" r="1.5" fill="#D2D6DB"/>
<circle cx="372.5" cy="418.5" r="1.5" fill="#D2D6DB"/>
<circle cx="425.5" cy="418.5" r="1.5" fill="#D2D6DB"/>
<circle cx="478.5" cy="418.5" r="1.5" fill="#D2D6DB"/>
<circle cx="531.5" cy="418.5" r="1.5" fill="#D2D6DB"/>
<circle cx="584.5" cy="418.5" r="1.5" fill="#D2D6DB"/>
<circle cx="637.5" cy="418.5" r="1.5" fill="#D2D6DB"/>
<circle cx="690.5" cy="418.5" r="1.5" fill="#D2D6DB"/>
<circle cx="743.5" cy="418.5" r="1.5" fill="#D2D6DB"/>
<circle cx="796.5" cy="418.5" r="1.5" fill="#D2D6DB"/>
<circle cx="849.5" cy="418.5" r="1.5" fill="#D2D6DB"/>
<circle cx="902.5" cy="418.5" r="1.5" fill="#D2D6DB"/>
<circle cx="955.5" cy="418.5" r="1.5" fill="#D2D6DB"/>
<circle cx="1008.5" cy="418.5" r="1.5" fill="#D2D6DB"/>
<circle cx="1061.5" cy="418.5" r="1.5" fill="#D2D6DB"/>
<circle cx="1114.5" cy="418.5" r="1.5" fill="#D2D6DB"/>
<circle cx="1167.5" cy="418.5" r="1.5" fill="#D2D6DB"/>
<circle cx="1220.5" cy="418.5" r="1.5" fill="#D2D6DB"/>
<circle cx="1273.5" cy="418.5" r="1.5" fill="#D2D6DB"/>
<circle cx="1326.5" cy="418.5" r="1.5" fill="#D2D6DB"/>
<circle cx="1379.5" cy="418.5" r="1.5" fill="#D2D6DB"/>
<circle cx="54.5" cy="471.5" r="1.5" fill="#D2D6DB"/>
<circle cx="107.5" cy="471.5" r="1.5" fill="#D2D6DB"/>
<circle cx="160.5" cy="471.5" r="1.5" fill="#D2D6DB"/>
<circle cx="213.5" cy="471.5" r="1.5" fill="#D2D6DB"/>
<circle cx="266.5" cy="471.5" r="1.5" fill="#D2D6DB"/>
<circle cx="319.5" cy="471.5" r="1.5" fill="#D2D6DB"/>
<circle cx="372.5" cy="471.5" r="1.5" fill="#D2D6DB"/>
<circle cx="425.5" cy="471.5" r="1.5" fill="#D2D6DB"/>
<circle cx="478.5" cy="471.5" r="1.5" fill="#D2D6DB"/>
<circle cx="531.5" cy="471.5" r="1.5" fill="#D2D6DB"/>
<circle cx="584.5" cy="471.5" r="1.5" fill="#D2D6DB"/>
<circle cx="637.5" cy="471.5" r="1.5" fill="#D2D6DB"/>
<circle cx="690.5" cy="471.5" r="1.5" fill="#D2D6DB"/>
<circle cx="743.5" cy="471.5" r="1.5" fill="#D2D6DB"/>
<circle cx="796.5" cy="471.5" r="1.5" fill="#D2D6DB"/>
<circle cx="849.5" cy="471.5" r="1.5" fill="#D2D6DB"/>
<circle cx="902.5" cy="471.5" r="1.5" fill="#D2D6DB"/>
<circle cx="955.5" cy="471.5" r="1.5" fill="#D2D6DB"/>
<circle cx="1008.5" cy="471.5" r="1.5" fill="#D2D6DB"/>
<circle cx="1061.5" cy="471.5" r="1.5" fill="#D2D6DB"/>
<circle cx="1114.5" cy="471.5" r="1.5" fill="#D2D6DB"/>
<circle cx="1167.5" cy="471.5" r="1.5" fill="#D2D6DB"/>
<circle cx="1220.5" cy="471.5" r="1.5" fill="#D2D6DB"/>
<circle cx="1273.5" cy="471.5" r="1.5" fill="#D2D6DB"/>
<circle cx="1326.5" cy="471.5" r="1.5" fill="#D2D6DB"/>
<circle cx="1379.5" cy="471.5" r="1.5" fill="#D2D6DB"/>
<circle cx="54.5" cy="524.5" r="1.5" fill="#D2D6DB"/>
<circle cx="107.5" cy="524.5" r="1.5" fill="#D2D6DB"/>
<circle cx="160.5" cy="524.5" r="1.5" fill="#D2D6DB"/>
<circle cx="213.5" cy="524.5" r="1.5" fill="#D2D6DB"/>
<circle cx="266.5" cy="524.5" r="1.5" fill="#D2D6DB"/>
<circle cx="319.5" cy="524.5" r="1.5" fill="#D2D6DB"/>
<circle cx="372.5" cy="524.5" r="1.5" fill="#D2D6DB"/>
<circle cx="425.5" cy="524.5" r="1.5" fill="#D2D6DB"/>
<circle cx="478.5" cy="524.5" r="1.5" fill="#D2D6DB"/>
<circle cx="531.5" cy="524.5" r="1.5" fill="#D2D6DB"/>
<circle cx="584.5" cy="524.5" r="1.5" fill="#D2D6DB"/>
<circle cx="637.5" cy="524.5" r="1.5" fill="#D2D6DB"/>
<circle cx="690.5" cy="524.5" r="1.5" fill="#D2D6DB"/>
<circle cx="743.5" cy="524.5" r="1.5" fill="#D2D6DB"/>
<circle cx="796.5" cy="524.5" r="1.5" fill="#D2D6DB"/>
<circle cx="849.5" cy="524.5" r="1.5" fill="#D2D6DB"/>
<circle cx="902.5" cy="524.5" r="1.5" fill="#D2D6DB"/>
<circle cx="955.5" cy="524.5" r="1.5" fill="#D2D6DB"/>
<circle cx="1008.5" cy="524.5" r="1.5" fill="#D2D6DB"/>
<circle cx="1061.5" cy="524.5" r="1.5" fill="#D2D6DB"/>
<circle cx="1114.5" cy="524.5" r="1.5" fill="#D2D6DB"/>
<circle cx="1167.5" cy="524.5" r="1.5" fill="#D2D6DB"/>
<circle cx="1220.5" cy="524.5" r="1.5" fill="#D2D6DB"/>
<circle cx="1273.5" cy="524.5" r="1.5" fill="#D2D6DB"/>
<circle cx="1326.5" cy="524.5" r="1.5" fill="#D2D6DB"/>
<circle cx="1379.5" cy="524.5" r="1.5" fill="#D2D6DB"/>
<circle cx="54.5" cy="577.5" r="1.5" fill="#D2D6DB"/>
<circle cx="107.5" cy="577.5" r="1.5" fill="#D2D6DB"/>
<circle cx="160.5" cy="577.5" r="1.5" fill="#D2D6DB"/>
<circle cx="213.5" cy="577.5" r="1.5" fill="#D2D6DB"/>
<circle cx="266.5" cy="577.5" r="1.5" fill="#D2D6DB"/>
<circle cx="319.5" cy="577.5" r="1.5" fill="#D2D6DB"/>
<circle cx="372.5" cy="577.5" r="1.5" fill="#D2D6DB"/>
<circle cx="425.5" cy="577.5" r="1.5" fill="#D2D6DB"/>
<circle cx="478.5" cy="577.5" r="1.5" fill="#D2D6DB"/>
<circle cx="531.5" cy="577.5" r="1.5" fill="#D2D6DB"/>
<circle cx="584.5" cy="577.5" r="1.5" fill="#D2D6DB"/>
<circle cx="637.5" cy="577.5" r="1.5" fill="#D2D6DB"/>
<circle cx="690.5" cy="577.5" r="1.5" fill="#D2D6DB"/>
<circle cx="743.5" cy="577.5" r="1.5" fill="#D2D6DB"/>
<circle cx="796.5" cy="577.5" r="1.5" fill="#D2D6DB"/>
<circle cx="849.5" cy="577.5" r="1.5" fill="#D2D6DB"/>
<circle cx="902.5" cy="577.5" r="1.5" fill="#D2D6DB"/>
<circle cx="955.5" cy="577.5" r="1.5" fill="#D2D6DB"/>
<circle cx="1008.5" cy="577.5" r="1.5" fill="#D2D6DB"/>
<circle cx="1061.5" cy="577.5" r="1.5" fill="#D2D6DB"/>
<circle cx="1114.5" cy="577.5" r="1.5" fill="#D2D6DB"/>
<circle cx="1167.5" cy="577.5" r="1.5" fill="#D2D6DB"/>
<circle cx="1220.5" cy="577.5" r="1.5" fill="#D2D6DB"/>
<circle cx="1273.5" cy="577.5" r="1.5" fill="#D2D6DB"/>
<circle cx="1326.5" cy="577.5" r="1.5" fill="#D2D6DB"/>
<circle cx="1379.5" cy="577.5" r="1.5" fill="#D2D6DB"/>
<circle cx="54.5" cy="630.5" r="1.5" fill="#D2D6DB"/>
<circle cx="107.5" cy="630.5" r="1.5" fill="#D2D6DB"/>
<circle cx="160.5" cy="630.5" r="1.5" fill="#D2D6DB"/>
<circle cx="213.5" cy="630.5" r="1.5" fill="#D2D6DB"/>
<circle cx="266.5" cy="630.5" r="1.5" fill="#D2D6DB"/>
<circle cx="319.5" cy="630.5" r="1.5" fill="#D2D6DB"/>
<circle cx="372.5" cy="630.5" r="1.5" fill="#D2D6DB"/>
<circle cx="425.5" cy="630.5" r="1.5" fill="#D2D6DB"/>
<circle cx="478.5" cy="630.5" r="1.5" fill="#D2D6DB"/>
<circle cx="531.5" cy="630.5" r="1.5" fill="#D2D6DB"/>
<circle cx="584.5" cy="630.5" r="1.5" fill="#D2D6DB"/>
<circle cx="637.5" cy="630.5" r="1.5" fill="#D2D6DB"/>
<circle cx="690.5" cy="630.5" r="1.5" fill="#D2D6DB"/>
<circle cx="743.5" cy="630.5" r="1.5" fill="#D2D6DB"/>
<circle cx="796.5" cy="630.5" r="1.5" fill="#D2D6DB"/>
<circle cx="849.5" cy="630.5" r="1.5" fill="#D2D6DB"/>
<circle cx="902.5" cy="630.5" r="1.5" fill="#D2D6DB"/>
<circle cx="955.5" cy="630.5" r="1.5" fill="#D2D6DB"/>
<circle cx="1008.5" cy="630.5" r="1.5" fill="#D2D6DB"/>
<circle cx="1061.5" cy="630.5" r="1.5" fill="#D2D6DB"/>
<circle cx="1114.5" cy="630.5" r="1.5" fill="#D2D6DB"/>
<circle cx="1167.5" cy="630.5" r="1.5" fill="#D2D6DB"/>
<circle cx="1220.5" cy="630.5" r="1.5" fill="#D2D6DB"/>
<circle cx="1273.5" cy="630.5" r="1.5" fill="#D2D6DB"/>
<circle cx="1326.5" cy="630.5" r="1.5" fill="#D2D6DB"/>
<circle cx="1379.5" cy="630.5" r="1.5" fill="#D2D6DB"/>
<circle cx="54.5" cy="683.5" r="1.5" fill="#D2D6DB"/>
<circle cx="107.5" cy="683.5" r="1.5" fill="#D2D6DB"/>
<circle cx="160.5" cy="683.5" r="1.5" fill="#D2D6DB"/>
<circle cx="213.5" cy="683.5" r="1.5" fill="#D2D6DB"/>
<circle cx="266.5" cy="683.5" r="1.5" fill="#D2D6DB"/>
<circle cx="319.5" cy="683.5" r="1.5" fill="#D2D6DB"/>
<circle cx="372.5" cy="683.5" r="1.5" fill="#D2D6DB"/>
<circle cx="425.5" cy="683.5" r="1.5" fill="#D2D6DB"/>
<circle cx="478.5" cy="683.5" r="1.5" fill="#D2D6DB"/>
<circle cx="531.5" cy="683.5" r="1.5" fill="#D2D6DB"/>
<circle cx="584.5" cy="683.5" r="1.5" fill="#D2D6DB"/>
<circle cx="637.5" cy="683.5" r="1.5" fill="#D2D6DB"/>
<circle cx="690.5" cy="683.5" r="1.5" fill="#D2D6DB"/>
<circle cx="743.5" cy="683.5" r="1.5" fill="#D2D6DB"/>
<circle cx="796.5" cy="683.5" r="1.5" fill="#D2D6DB"/>
<circle cx="849.5" cy="683.5" r="1.5" fill="#D2D6DB"/>
<circle cx="902.5" cy="683.5" r="1.5" fill="#D2D6DB"/>
<circle cx="955.5" cy="683.5" r="1.5" fill="#D2D6DB"/>
<circle cx="1008.5" cy="683.5" r="1.5" fill="#D2D6DB"/>
<circle cx="1061.5" cy="683.5" r="1.5" fill="#D2D6DB"/>
<circle cx="1114.5" cy="683.5" r="1.5" fill="#D2D6DB"/>
<circle cx="1167.5" cy="683.5" r="1.5" fill="#D2D6DB"/>
<circle cx="1220.5" cy="683.5" r="1.5" fill="#D2D6DB"/>
<circle cx="1273.5" cy="683.5" r="1.5" fill="#D2D6DB"/>
<circle cx="1326.5" cy="683.5" r="1.5" fill="#D2D6DB"/>
<circle cx="1379.5" cy="683.5" r="1.5" fill="#D2D6DB"/>
<circle cx="54.5" cy="736.5" r="1.5" fill="#D2D6DB"/>
<circle cx="107.5" cy="736.5" r="1.5" fill="#D2D6DB"/>
<circle cx="160.5" cy="736.5" r="1.5" fill="#D2D6DB"/>
<circle cx="213.5" cy="736.5" r="1.5" fill="#D2D6DB"/>
<circle cx="266.5" cy="736.5" r="1.5" fill="#D2D6DB"/>
<circle cx="319.5" cy="736.5" r="1.5" fill="#D2D6DB"/>
<circle cx="372.5" cy="736.5" r="1.5" fill="#D2D6DB"/>
<circle cx="425.5" cy="736.5" r="1.5" fill="#D2D6DB"/>
<circle cx="478.5" cy="736.5" r="1.5" fill="#D2D6DB"/>
<circle cx="531.5" cy="736.5" r="1.5" fill="#D2D6DB"/>
<circle cx="584.5" cy="736.5" r="1.5" fill="#D2D6DB"/>
<circle cx="637.5" cy="736.5" r="1.5" fill="#D2D6DB"/>
<circle cx="690.5" cy="736.5" r="1.5" fill="#D2D6DB"/>
<circle cx="743.5" cy="736.5" r="1.5" fill="#D2D6DB"/>
<circle cx="796.5" cy="736.5" r="1.5" fill="#D2D6DB"/>
<circle cx="849.5" cy="736.5" r="1.5" fill="#D2D6DB"/>
<circle cx="902.5" cy="736.5" r="1.5" fill="#D2D6DB"/>
<circle cx="955.5" cy="736.5" r="1.5" fill="#D2D6DB"/>
<circle cx="1008.5" cy="736.5" r="1.5" fill="#D2D6DB"/>
<circle cx="1061.5" cy="736.5" r="1.5" fill="#D2D6DB"/>
<circle cx="1114.5" cy="736.5" r="1.5" fill="#D2D6DB"/>
<circle cx="1167.5" cy="736.5" r="1.5" fill="#D2D6DB"/>
<circle cx="1220.5" cy="736.5" r="1.5" fill="#D2D6DB"/>
<circle cx="1273.5" cy="736.5" r="1.5" fill="#D2D6DB"/>
<circle cx="1326.5" cy="736.5" r="1.5" fill="#D2D6DB"/>
<circle cx="1379.5" cy="736.5" r="1.5" fill="#D2D6DB"/>
<circle cx="54.5" cy="789.5" r="1.5" fill="#D2D6DB"/>
<circle cx="107.5" cy="789.5" r="1.5" fill="#D2D6DB"/>
<circle cx="160.5" cy="789.5" r="1.5" fill="#D2D6DB"/>
<circle cx="213.5" cy="789.5" r="1.5" fill="#D2D6DB"/>
<circle cx="266.5" cy="789.5" r="1.5" fill="#D2D6DB"/>
<circle cx="319.5" cy="789.5" r="1.5" fill="#D2D6DB"/>
<circle cx="372.5" cy="789.5" r="1.5" fill="#D2D6DB"/>
<circle cx="425.5" cy="789.5" r="1.5" fill="#D2D6DB"/>
<circle cx="478.5" cy="789.5" r="1.5" fill="#D2D6DB"/>
<circle cx="531.5" cy="789.5" r="1.5" fill="#D2D6DB"/>
<circle cx="584.5" cy="789.5" r="1.5" fill="#D2D6DB"/>
<circle cx="637.5" cy="789.5" r="1.5" fill="#D2D6DB"/>
<circle cx="690.5" cy="789.5" r="1.5" fill="#D2D6DB"/>
<circle cx="743.5" cy="789.5" r="1.5" fill="#D2D6DB"/>
<circle cx="796.5" cy="789.5" r="1.5" fill="#D2D6DB"/>
<circle cx="849.5" cy="789.5" r="1.5" fill="#D2D6DB"/>
<circle cx="902.5" cy="789.5" r="1.5" fill="#D2D6DB"/>
<circle cx="955.5" cy="789.5" r="1.5" fill="#D2D6DB"/>
<circle cx="1008.5" cy="789.5" r="1.5" fill="#D2D6DB"/>
<circle cx="1061.5" cy="789.5" r="1.5" fill="#D2D6DB"/>
<circle cx="1114.5" cy="789.5" r="1.5" fill="#D2D6DB"/>
<circle cx="1167.5" cy="789.5" r="1.5" fill="#D2D6DB"/>
<circle cx="1220.5" cy="789.5" r="1.5" fill="#D2D6DB"/>
<circle cx="1273.5" cy="789.5" r="1.5" fill="#D2D6DB"/>
<circle cx="1326.5" cy="789.5" r="1.5" fill="#D2D6DB"/>
<circle cx="1379.5" cy="789.5" r="1.5" fill="#D2D6DB"/>
<circle cx="54.5" cy="842.5" r="1.5" fill="#D2D6DB"/>
<circle cx="107.5" cy="842.5" r="1.5" fill="#D2D6DB"/>
<circle cx="160.5" cy="842.5" r="1.5" fill="#D2D6DB"/>
<circle cx="213.5" cy="842.5" r="1.5" fill="#D2D6DB"/>
<circle cx="266.5" cy="842.5" r="1.5" fill="#D2D6DB"/>
<circle cx="319.5" cy="842.5" r="1.5" fill="#D2D6DB"/>
<circle cx="372.5" cy="842.5" r="1.5" fill="#D2D6DB"/>
<circle cx="425.5" cy="842.5" r="1.5" fill="#D2D6DB"/>
<circle cx="478.5" cy="842.5" r="1.5" fill="#D2D6DB"/>
<circle cx="531.5" cy="842.5" r="1.5" fill="#D2D6DB"/>
<circle cx="584.5" cy="842.5" r="1.5" fill="#D2D6DB"/>
<circle cx="637.5" cy="842.5" r="1.5" fill="#D2D6DB"/>
<circle cx="690.5" cy="842.5" r="1.5" fill="#D2D6DB"/>
<circle cx="743.5" cy="842.5" r="1.5" fill="#D2D6DB"/>
<circle cx="796.5" cy="842.5" r="1.5" fill="#D2D6DB"/>
<circle cx="849.5" cy="842.5" r="1.5" fill="#D2D6DB"/>
<circle cx="902.5" cy="842.5" r="1.5" fill="#D2D6DB"/>
<circle cx="955.5" cy="842.5" r="1.5" fill="#D2D6DB"/>
<circle cx="1008.5" cy="842.5" r="1.5" fill="#D2D6DB"/>
<circle cx="1061.5" cy="842.5" r="1.5" fill="#D2D6DB"/>
<circle cx="1114.5" cy="842.5" r="1.5" fill="#D2D6DB"/>
<circle cx="1167.5" cy="842.5" r="1.5" fill="#D2D6DB"/>
<circle cx="1220.5" cy="842.5" r="1.5" fill="#D2D6DB"/>
<circle cx="1273.5" cy="842.5" r="1.5" fill="#D2D6DB"/>
<circle cx="1326.5" cy="842.5" r="1.5" fill="#D2D6DB"/>
<circle cx="1379.5" cy="842.5" r="1.5" fill="#D2D6DB"/>
</g>
</g>
<defs>
<filter id="filter0_d_184_180" x="0" y="0" width="1448" height="908" filterUnits="userSpaceOnUse" color-interpolation-filters="sRGB">
<feFlood flood-opacity="0" result="BackgroundImageFix"/>
<feColorMatrix in="SourceAlpha" type="matrix" values="0 0 0 0 0 0 0 0 0 0 0 0 0 0 0 0 0 0 127 0" result="hardAlpha"/>
<feOffset dy="4"/>
<feGaussianBlur stdDeviation="2"/>
<feComposite in2="hardAlpha" operator="out"/>
<feColorMatrix type="matrix" values="0 0 0 0 0 0 0 0 0 0 0 0 0 0 0 0 0 0 0.25 0"/>
<feBlend mode="normal" in2="BackgroundImageFix" result="effect1_dropShadow_184_180"/>
<feBlend mode="normal" in="SourceGraphic" in2="effect1_dropShadow_184_180" result="shape"/>
</filter>
<clipPath id="clip0_184_180">
<rect width="1342" height="838.75" fill="white" transform="translate(53 46)"/>
</clipPath>
</defs>
</svg>
